<?xml version="1.0" encoding="UTF-8"?>
<svg id="_圖層_1" data-name="圖層_1" xmlns="http://www.w3.org/2000/svg" baseProfile="tiny" version="1.2" viewBox="0 0 28.3 28.3">
  <!-- Generator: Adobe Illustrator 30.0.0, SVG Export Plug-In . SVG Version: 2.1.1 Build 123)  -->
  <rect x="25.9" y="11.9" width="2.1" height="2.1" fill="#bf6095"/>
  <rect x="8" y="19.6" width="2.1" height="2.1" fill="#ffd400"/>
  <rect x="5.5" y="22.1" width="2.1" height="2.1" fill="#ffd400"/>
  <rect x="20.7" y="22.1" width="2.1" height="2.1" fill="#ffd400"/>
  <rect x="23.1" y="24.6" width="2.1" height="2.1" fill="#ffd400"/>
  <rect x="3.1" y="24.6" width="2.1" height="2.1" fill="#ffd400"/>
  <rect x="18.2" y="19.6" width="2.1" height="2.1" fill="#ffd400"/>
  <rect x="10.5" y="1.6" width="2.1" height="2.1" fill="#bf6095"/>
  <rect x="13.1" y="1.6" width="2.1" height="2.1" fill="#bf6095"/>
  <rect x="15.7" y="1.6" width="2.1" height="2.1" fill="#bf6095"/>
  <rect x="8" y="4.2" width="2.1" height="2.1" fill="#bf6095"/>
  <rect x="18.2" y="4.2" width="2.1" height="2.1" fill="#bf6095"/>
  <rect x="5.4" y="6.7" width="2.1" height="2.1" fill="#bf6095"/>
  <rect x="8" y="6.7" width="2.1" height="2.1" fill="#bf6095"/>
  <rect x="10.5" y="6.7" width="2.1" height="2.1" fill="#bf6095"/>
  <rect x="13.1" y="6.7" width="2.1" height="2.1" fill="#bf6095"/>
  <rect x="15.7" y="6.7" width="2.1" height="2.1" fill="#bf6095"/>
  <rect x="18.2" y="6.7" width="2.1" height="2.1" fill="#bf6095"/>
  <rect x="20.8" y="6.7" width="2.1" height="2.1" fill="#bf6095"/>
  <rect x="2.8" y="9.3" width="2.1" height="2.1" fill="#bf6095"/>
  <rect x="23.4" y="9.3" width="2.1" height="2.1" fill="#bf6095"/>
  <rect x=".3" y="11.9" width="2.1" height="2.1" fill="#bf6095"/>
  <rect x="8" y="11.9" width="2.1" height="2.1" fill="#6eafdb"/>
  <rect x="13.1" y="11.9" width="2.1" height="2.1" fill="#6eafdb"/>
  <rect x="18.2" y="11.9" width="2.1" height="2.1" fill="#6eafdb"/>
  <rect x="2.8" y="14.4" width="2.1" height="2.1" fill="#bf6095"/>
  <rect x="23.4" y="14.4" width="2.1" height="2.1" fill="#bf6095"/>
  <rect x="5.4" y="17" width="2.1" height="2.1" fill="#bf6095"/>
  <rect x="8" y="17" width="2.1" height="2.1" fill="#bf6095"/>
  <rect x="10.5" y="17" width="2.1" height="2.1" fill="#bf6095"/>
  <rect x="13.1" y="17" width="2.1" height="2.1" fill="#bf6095"/>
  <rect x="15.7" y="17" width="2.1" height="2.1" fill="#bf6095"/>
  <rect x="18.2" y="17" width="2.1" height="2.1" fill="#bf6095"/>
  <rect x="20.8" y="17" width="2.1" height="2.1" fill="#bf6095"/>
</svg>